<svg xmlns="http://www.w3.org/2000/svg" width="312" height="200" fill="none" viewBox="0 0 312 200">
  <rect width="311" height="199" x=".5" y=".5" fill="#fff" rx="7.5"/>
  <path fill="#2CA01C" fill-rule="evenodd" d="M107 100c0-27.062 21.715-49 48.5-49 26.786 0 48.5 21.938 48.5 49 0 27.061-21.714 49-48.5 49-26.785 0-48.5-21.939-48.5-49Z" clip-rule="evenodd"/>
  <path fill="#fff" fill-rule="evenodd" d="M171.887 81.018h-2.73v7.05h2.73c6.624 0 12.014 5.354 12.014 11.934 0 6.579-5.39 11.932-12.014 11.932h-6.561V75.051c0-3.894-3.179-7.051-7.099-7.051v50.986h13.66c10.556 0 19.113-8.5 19.113-18.984 0-10.485-8.557-18.984-19.113-18.984ZM120 99.998c0 10.485 8.557 18.984 19.113 18.984h2.73v-7.051h-2.73c-6.624 0-12.014-5.352-12.014-11.933 0-6.579 5.39-11.932 12.014-11.932h6.561v36.883c0 3.894 3.179 7.051 7.099 7.051V81.014h-13.66c-10.556 0-19.113 8.5-19.113 18.984Z" clip-rule="evenodd"/>
  <rect width="311" height="199" x=".5" y=".5" stroke="#BABEC5" rx="7.5"/>
</svg>
